<svg width="16" height="16" viewBox="0 0 16 16" fill="none" xmlns="http://www.w3.org/2000/svg">
<path d="M7.33333 11.3334H8.66666V8.66671H11.3333V7.33337H8.66666V4.66671H7.33333V7.33337H4.66666V8.66671H7.33333V11.3334ZM8 14.6667C7.07777 14.6667 6.21111 14.4945 5.4 14.15C4.58888 13.7945 3.88333 13.3167 3.28333 12.7167C2.68333 12.1167 2.20555 11.4112 1.84999 10.6C1.50555 9.78893 1.33333 8.92226 1.33333 8.00004C1.33333 7.07782 1.50555 6.21115 1.84999 5.40004C2.20555 4.58893 2.68333 3.88337 3.28333 3.28337C3.88333 2.68337 4.58888 2.21115 5.4 1.86671C6.21111 1.51115 7.07777 1.33337 8 1.33337C8.92222 1.33337 9.78888 1.51115 10.6 1.86671C11.4111 2.21115 12.1167 2.68337 12.7167 3.28337C13.3167 3.88337 13.7889 4.58893 14.1333 5.40004C14.4889 6.21115 14.6667 7.07782 14.6667 8.00004C14.6667 8.92226 14.4889 9.78893 14.1333 10.6C13.7889 11.4112 13.3167 12.1167 12.7167 12.7167C12.1167 13.3167 11.4111 13.7945 10.6 14.15C9.78888 14.4945 8.92222 14.6667 8 14.6667ZM8 13.3334C9.48888 13.3334 10.75 12.8167 11.7833 11.7834C12.8167 10.75 13.3333 9.48893 13.3333 8.00004C13.3333 6.51115 12.8167 5.25004 11.7833 4.21671C10.75 3.18337 9.48888 2.66671 8 2.66671C6.51111 2.66671 5.25 3.18337 4.21666 4.21671C3.18333 5.25004 2.66666 6.51115 2.66666 8.00004C2.66666 9.48893 3.18333 10.75 4.21666 11.7834C5.25 12.8167 6.51111 13.3334 8 13.3334Z" fill="white"/>
</svg>
