<svg width="15" height="16" viewBox="0 0 15 16" fill="none" xmlns="http://www.w3.org/2000/svg">
<mask id="mask0_87_3214" style="mask-type:luminance" maskUnits="userSpaceOnUse" x="0" y="1" width="15" height="14">
<path fill-rule="evenodd" clip-rule="evenodd" d="M0.625 1.12518H14.0581V14.5588H0.625V1.12518Z" fill="white"/>
</mask>
<g mask="url(#mask0_87_3214)">
<path fill-rule="evenodd" clip-rule="evenodd" d="M3.81774 12.7971C4.18024 12.7971 4.52212 12.9346 4.88399 13.0802C7.10087 14.1052 9.72274 13.6389 11.4309 11.9314C13.6846 9.67643 13.6846 6.00831 11.4309 3.75456C10.3396 2.66331 8.88837 2.06268 7.34337 2.06268C5.79774 2.06268 4.34587 2.66393 3.25524 3.75518C1.54649 5.46268 1.08149 8.08456 2.09712 10.2802C2.24337 10.6421 2.38462 10.9946 2.38462 11.3608C2.38462 11.7264 2.25899 12.0946 2.14837 12.4196C2.05712 12.6871 1.91899 13.0908 2.00774 13.1796C2.09462 13.2696 2.50087 13.1277 2.76899 13.0358C3.09087 12.9258 3.45587 12.7996 3.81774 12.7971ZM7.32774 14.5589C6.37274 14.5589 5.41149 14.3571 4.51212 13.9408C4.24712 13.8346 3.99899 13.7346 3.82087 13.7346C3.61587 13.7358 3.34024 13.8308 3.07399 13.9227C2.52774 14.1102 1.84774 14.3439 1.34462 13.8427C0.843368 13.3408 1.07462 12.6627 1.26087 12.1171C1.35274 11.8483 1.44712 11.5708 1.44712 11.3608C1.44712 11.1883 1.36399 10.9683 1.23649 10.6514C0.0658677 8.12331 0.607118 5.07643 2.59274 3.09206C3.86024 1.82393 5.54712 1.12518 7.34274 1.12518C9.13837 1.12518 10.8259 1.82331 12.0934 3.09143C14.7134 5.71143 14.7134 9.97393 12.0934 12.5939C10.809 13.8789 9.07962 14.5589 7.32774 14.5589Z" fill="#979797"/>
</g>
<path fill-rule="evenodd" clip-rule="evenodd" d="M9.81019 8.72688C9.46519 8.72688 9.18269 8.4475 9.18269 8.10188C9.18269 7.75625 9.45957 7.47688 9.80457 7.47688H9.81019C10.1552 7.47688 10.4352 7.75625 10.4352 8.10188C10.4352 8.4475 10.1552 8.72688 9.81019 8.72688Z" fill="#979797"/>
<path fill-rule="evenodd" clip-rule="evenodd" d="M7.30468 8.72688C6.95968 8.72688 6.67719 8.4475 6.67719 8.10188C6.67719 7.75625 6.95344 7.47688 7.29906 7.47688H7.30468C7.64968 7.47688 7.92968 7.75625 7.92968 8.10188C7.92968 8.4475 7.64968 8.72688 7.30468 8.72688Z" fill="#979797"/>
<path fill-rule="evenodd" clip-rule="evenodd" d="M4.79893 8.72688C4.45393 8.72688 4.17143 8.4475 4.17143 8.10188C4.17143 7.75625 4.44831 7.47688 4.79331 7.47688H4.79893C5.14393 7.47688 5.42393 7.75625 5.42393 8.10188C5.42393 8.4475 5.14393 8.72688 4.79893 8.72688Z" fill="#979797"/>
</svg>
