<svg width="16" height="16" viewBox="0 0 16 16" fill="none" xmlns="http://www.w3.org/2000/svg">
<path d="M8.43614 11.8111L14.8336 5.02225C14.9404 4.90898 15 4.75848 15 4.60198C15 4.44549 14.9404 4.29499 14.8336 4.18172L14.8264 4.17441C14.7746 4.11931 14.7123 4.07543 14.6432 4.04545C14.5742 4.01546 14.4998 4 14.4246 4C14.3494 4 14.275 4.01546 14.206 4.04545C14.1369 4.07543 14.0746 4.11931 14.0228 4.17441L7.9988 10.5673L1.97721 4.17441C1.92543 4.11931 1.86312 4.07543 1.79404 4.04544C1.72496 4.01546 1.65058 4 1.57541 4C1.50024 4 1.42585 4.01546 1.35678 4.04544C1.2877 4.07543 1.22538 4.11931 1.17361 4.17441L1.16638 4.18172C1.05958 4.29499 1 4.44549 1 4.60198C1 4.75848 1.05958 4.90898 1.16638 5.02225L7.56386 11.8111C7.62012 11.8708 7.68779 11.9183 7.76276 11.9508C7.83773 11.9833 7.91844 12 8 12C8.08156 12 8.16227 11.9833 8.23724 11.9508C8.31221 11.9183 8.37988 11.8708 8.43614 11.8111Z" fill="black"/>
</svg>
