<svg width="15" height="15" viewBox="0 0 15 15" fill="none" xmlns="http://www.w3.org/2000/svg">
<g clip-path="url(#clip0_87_3243)">
<mask id="mask0_87_3243" style="mask-type:luminance" maskUnits="userSpaceOnUse" x="1" y="1" width="14" height="14">
<path fill-rule="evenodd" clip-rule="evenodd" d="M1.25 1.87494H14.0453V14.0631H1.25V1.87494Z" fill="white"/>
</mask>
<g mask="url(#mask0_87_3243)">
<path fill-rule="evenodd" clip-rule="evenodd" d="M2.38982 7.57687C3.26607 10.3031 6.72795 12.5075 7.64795 13.0531C8.57107 12.5019 12.0579 10.2731 12.9061 7.57937C13.4629 5.83812 12.9461 3.6325 10.8923 2.97062C9.89732 2.65125 8.7367 2.84562 7.93545 3.46562C7.76795 3.59437 7.53545 3.59687 7.3667 3.46937C6.51795 2.83125 5.4092 2.64437 4.39857 2.97062C2.34795 3.63187 1.83295 5.8375 2.38982 7.57687ZM7.64857 14.0631C7.57107 14.0631 7.4942 14.0444 7.4242 14.0062C7.22857 13.8994 2.62045 11.3594 1.49732 7.86312C1.4967 7.86312 1.4967 7.8625 1.4967 7.8625C0.791695 5.66125 1.5767 2.895 4.11107 2.07812C5.30107 1.69312 6.59795 1.8625 7.6467 2.52437C8.66295 1.88187 10.0129 1.70437 11.1792 2.07812C13.7161 2.89625 14.5036 5.66187 13.7992 7.8625C12.7123 11.3187 8.07045 13.8969 7.87357 14.005C7.80357 14.0437 7.72607 14.0631 7.64857 14.0631Z" fill="#D35151"/>
</g>
<path fill-rule="evenodd" clip-rule="evenodd" d="M11.3461 6.64056C11.1042 6.64056 10.8992 6.45494 10.8792 6.20994C10.8379 5.69619 10.4942 5.26244 10.0048 5.10431C9.75793 5.02431 9.62293 4.75994 9.70231 4.51431C9.78293 4.26806 10.0448 4.13431 10.2923 4.21181C11.1442 4.48744 11.7411 5.24181 11.8142 6.13369C11.8348 6.39181 11.6429 6.61806 11.3848 6.63869C11.3717 6.63994 11.3592 6.64056 11.3461 6.64056Z" fill="#D35151"/>
</g>
<defs>
<clipPath id="clip0_87_3243">
<rect width="15" height="15" fill="white"/>
</clipPath>
</defs>
</svg>
