<svg width="15" height="16" viewBox="0 0 15 16" fill="none" xmlns="http://www.w3.org/2000/svg">
<mask id="mask0_117_281" style="mask-type:luminance" maskUnits="userSpaceOnUse" x="1" y="9" width="10" height="5">
<path fill-rule="evenodd" clip-rule="evenodd" d="M1.25 9.22313H10.7399V13.6604H1.25V9.22313Z" fill="white"/>
</mask>
<g mask="url(#mask0_117_281)">
<path fill-rule="evenodd" clip-rule="evenodd" d="M5.99488 10.1606C4.258 10.1606 2.18738 10.3838 2.18738 11.4494C2.18738 12.2944 3.46863 12.7231 5.99488 12.7231C8.52113 12.7231 9.80238 12.29 9.80238 11.4369C9.80238 10.59 8.52113 10.1606 5.99488 10.1606M5.99488 13.6606C4.69738 13.6606 1.24988 13.6606 1.24988 11.4494C1.24988 9.22313 4.82113 9.22313 5.99488 9.22313C8.03175 9.22313 10.7399 9.4525 10.7399 11.4369C10.7399 13.6606 7.16863 13.6606 5.99488 13.6606" fill="#979797"/>
</g>
<path fill-rule="evenodd" clip-rule="evenodd" d="M5.99487 2.6875C4.74175 2.6875 3.72237 3.70688 3.72237 4.95937C3.72237 6.21187 4.74175 7.23125 5.99487 7.23125H6.01425C6.61675 7.22875 7.18425 6.99187 7.60987 6.5625C8.03612 6.13437 8.26925 5.565 8.26675 4.96125C8.26675 3.70688 7.24737 2.6875 5.99487 2.6875V2.6875ZM5.99487 8.16875C4.22487 8.16875 2.78487 6.72875 2.78487 4.95938C2.78487 3.19 4.22487 1.75 5.99487 1.75C7.76425 1.75 9.20425 3.19 9.20425 4.95938C9.208 5.81188 8.87737 6.61687 8.27487 7.22312C7.67362 7.83 6.8705 8.16563 6.01612 8.16875H5.99487Z" fill="#979797"/>
<path fill-rule="evenodd" clip-rule="evenodd" d="M10.3015 7.45738C10.0715 7.45738 9.87087 7.288 9.83775 7.05363C9.80212 6.79738 9.98025 6.55988 10.2365 6.52425C11.0165 6.41488 11.6052 5.738 11.6065 4.94925C11.6065 4.1655 11.0452 3.50425 10.2734 3.378C10.0177 3.3355 9.84462 3.09488 9.8865 2.83925C9.92837 2.58363 10.1702 2.41175 10.4246 2.45238C11.6527 2.65363 12.544 3.70425 12.544 4.94988C12.5415 6.203 11.6059 7.27925 10.3671 7.453C10.3452 7.45613 10.3234 7.45738 10.3015 7.45738" fill="#979797"/>
<mask id="mask1_117_281" style="mask-type:luminance" maskUnits="userSpaceOnUse" x="11" y="8" width="3" height="5">
<path fill-rule="evenodd" clip-rule="evenodd" d="M11.1533 8.9271H13.7369V12.0381H11.1533V8.9271Z" fill="white"/>
</mask>
<g mask="url(#mask1_117_281)">
<path fill-rule="evenodd" clip-rule="evenodd" d="M12.4347 12.0381C12.2453 12.0381 12.0672 11.9224 11.9966 11.7356C11.9047 11.4937 12.0266 11.2224 12.2684 11.1312C12.7997 10.9299 12.7997 10.6843 12.7997 10.5793C12.7997 10.2249 12.3803 9.98243 11.5534 9.85931C11.2972 9.82056 11.1203 9.58181 11.1584 9.32618C11.1972 9.06993 11.4403 8.89806 11.6916 8.93118C13.3828 9.18431 13.7372 9.96743 13.7372 10.5793C13.7372 11.0349 13.5403 11.6518 12.6009 12.0074C12.5466 12.0281 12.4903 12.0381 12.4347 12.0381" fill="#979797"/>
</g>
</svg>
