<svg width="14" height="15" viewBox="0 0 14 15" fill="none" xmlns="http://www.w3.org/2000/svg">
<mask id="mask0_2005_634" style="mask-type:luminance" maskUnits="userSpaceOnUse" x="0" y="0" width="14" height="14">
<path fill-rule="evenodd" clip-rule="evenodd" d="M0.333313 0.333374H13.3178V13.318H0.333313V0.333374Z" fill="white"/>
</mask>
<g mask="url(#mask0_2005_634)">
<path fill-rule="evenodd" clip-rule="evenodd" d="M6.82586 1.33337C3.79719 1.33337 1.33319 3.79671 1.33319 6.82537C1.33319 9.85404 3.79719 12.318 6.82586 12.318C9.85386 12.318 12.3179 9.85404 12.3179 6.82537C12.3179 3.79671 9.85386 1.33337 6.82586 1.33337ZM6.82586 13.318C3.24586 13.318 0.333191 10.4054 0.333191 6.82537C0.333191 3.24537 3.24586 0.333374 6.82586 0.333374C10.4059 0.333374 13.3179 3.24537 13.3179 6.82537C13.3179 10.4054 10.4059 13.318 6.82586 13.318Z" fill="white"/>
</g>
<mask id="mask1_2005_634" style="mask-type:luminance" maskUnits="userSpaceOnUse" x="10" y="10" width="4" height="5">
<path fill-rule="evenodd" clip-rule="evenodd" d="M10.4933 10.8046H13.8427V14.1477H10.4933V10.8046Z" fill="white"/>
</mask>
<g mask="url(#mask1_2005_634)">
<path fill-rule="evenodd" clip-rule="evenodd" d="M13.3428 14.1477C13.2155 14.1477 13.0875 14.0991 12.9895 14.0017L10.6401 11.6591C10.4448 11.4637 10.4441 11.1471 10.6395 10.9517C10.8341 10.7551 11.1508 10.7564 11.3468 10.9504L13.6961 13.2937C13.8915 13.4891 13.8921 13.8051 13.6968 14.0004C13.5995 14.0991 13.4708 14.1477 13.3428 14.1477Z" fill="white"/>
</g>
</svg>
