<svg width="15" height="16" viewBox="0 0 15 16" fill="none" xmlns="http://www.w3.org/2000/svg">
<path d="M7.66941 10.8165C8.16294 10.8165 8.58059 10.6459 8.92235 10.3047C9.26412 9.96353 9.43471 9.54588 9.43412 9.05177V3.99588H11.8438V2.63794H8.75559V7.76265C8.60971 7.60382 8.44618 7.485 8.265 7.40618C8.08441 7.32677 7.88588 7.28706 7.66941 7.28706C7.17647 7.28706 6.75912 7.45794 6.41735 7.79971C6.07559 8.14147 5.905 8.55912 5.90559 9.05265C5.90618 9.54618 6.07677 9.96353 6.41735 10.3047C6.75794 10.6459 7.17471 10.8165 7.66941 10.8165ZM4.07206 12.8529C3.66559 12.8529 3.32647 12.7171 3.05471 12.4453C2.78294 12.1735 2.64706 11.8344 2.64706 11.4279V1.925C2.64706 1.51912 2.78324 1.18 3.05559 0.907649C3.32794 0.635296 3.66706 0.499414 4.07294 0.500002H13.575C13.9809 0.500002 14.32 0.635884 14.5924 0.907649C14.8647 1.17941 15.0006 1.51853 15 1.925V11.4279C15 11.8338 14.8641 12.1726 14.5924 12.4444C14.3206 12.7162 13.9812 12.8524 13.5741 12.8529H4.07206ZM4.07206 11.9706H13.5741C13.7094 11.9706 13.8338 11.9141 13.9474 11.8012C14.0609 11.6882 14.1174 11.5638 14.1168 11.4279V1.925C14.1168 1.78971 14.0603 1.6653 13.9474 1.55177C13.8344 1.43824 13.71 1.38177 13.5741 1.38235H4.07294C3.93706 1.38235 3.81235 1.43883 3.69882 1.55177C3.5853 1.66471 3.52883 1.78912 3.52941 1.925V11.4279C3.52941 11.5632 3.58588 11.6876 3.69882 11.8012C3.81177 11.9147 3.93618 11.9712 4.07206 11.9706ZM1.425 15.5C1.01912 15.5 0.680002 15.3641 0.407649 15.0924C0.135296 14.8206 -0.000586334 14.4815 1.90162e-06 14.075V3.68971H0.882355V14.075C0.882355 14.2103 0.938825 14.3347 1.05177 14.4482C1.16471 14.5618 1.28912 14.6182 1.425 14.6176H11.8103V15.5H1.425Z" fill="#979797"/>
</svg>
