<svg width="14" height="14" viewBox="0 0 14 14" fill="none" xmlns="http://www.w3.org/2000/svg">
<path fill-rule="evenodd" clip-rule="evenodd" d="M7.00001 2.04167C4.26592 2.04167 2.04167 4.26592 2.04167 7.00001C2.04167 9.73409 4.26592 11.9583 7.00001 11.9583C9.73409 11.9583 11.9583 9.73409 11.9583 7.00001C11.9583 4.26592 9.73409 2.04167 7.00001 2.04167ZM7 12.8333C3.7835 12.8333 1.16667 10.2165 1.16667 7C1.16667 3.7835 3.7835 1.16667 7 1.16667C10.2165 1.16667 12.8333 3.7835 12.8333 7C12.8333 10.2165 10.2165 12.8333 7 12.8333Z" fill="#979797"/>
<path fill-rule="evenodd" clip-rule="evenodd" d="M9.00154 9.15391C8.92512 9.15391 8.84812 9.13408 8.77754 9.09266L6.57837 7.78074C6.44653 7.70141 6.36487 7.55849 6.36487 7.40449V4.57649C6.36487 4.33499 6.56087 4.13899 6.80237 4.13899C7.04445 4.13899 7.23987 4.33499 7.23987 4.57649V7.15599L9.22612 8.34016C9.4332 8.46441 9.50145 8.73274 9.37779 8.94041C9.29554 9.07749 9.15029 9.15391 9.00154 9.15391Z" fill="#979797"/>
</svg>
